<?xml version="1.0" standalone="no"?>
<!DOCTYPE svg PUBLIC "-//W3C//DTD SVG 20010904//EN"
 "http://www.w3.org/TR/2001/REC-SVG-20010904/DTD/svg10.dtd">
<svg version="1.0" xmlns="http://www.w3.org/2000/svg"
 width="5056.000000pt" height="792.000000pt" viewBox="0 0 5056.000000 792.000000"
 preserveAspectRatio="xMidYMid meet">
<metadata>
Created by potrace 1.15, written by Peter Selinger 2001-2017
</metadata>
<g transform="translate(0.000000,792.000000) scale(0.100000,-0.100000)"
fill="#000000" stroke="none">
<path d="M41083 7909 c-66 -11 -174 -49 -256 -89 -211 -104 -392 -328 -469
-580 l-23 -75 -3 -3055 c-2 -2136 1 -3076 8 -3125 59 -385 381 -705 770 -766
102 -16 285 -6 380 21 330 93 594 370 661 694 18 88 19 191 19 3126 0 2061 -4
3056 -11 3099 -58 362 -356 670 -721 745 -83 17 -266 20 -355 5z m357 -55
c179 -40 323 -124 457 -268 101 -107 172 -242 210 -400 16 -66 18 -272 21
-3041 2 -2042 0 -3005 -8 -3082 -19 -202 -93 -376 -219 -517 -97 -107 -285
-223 -426 -261 -93 -25 -294 -31 -393 -11 -270 55 -496 231 -617 481 -24 50
-52 117 -62 150 -17 57 -18 210 -21 3125 -3 3400 -8 3139 63 3303 48 113 91
180 167 262 147 158 339 252 568 279 55 6 189 -4 260 -20z"/>
<path d="M10617 7690 c-125 -22 -272 -82 -374 -151 -70 -47 -181 -163 -235
-244 -60 -90 -110 -215 -133 -330 -13 -69 -16 -119 -12 -225 4 -129 11 -162
136 -710 72 -316 140 -613 151 -660 11 -47 110 -483 220 -970 111 -487 216
-952 235 -1035 19 -82 131 -577 250 -1100 119 -522 225 -984 235 -1026 126
-493 541 -885 1061 -1000 140 -31 437 -34 569 -5 276 60 494 175 698 371 126
121 215 240 282 380 67 139 84 195 215 713 63 251 232 918 375 1482 143 564
290 1145 327 1292 37 147 71 264 74 260 4 -4 55 -198 113 -432 59 -234 134
-528 166 -655 32 -126 133 -525 224 -885 436 -1724 414 -1645 501 -1808 68
-128 148 -233 256 -336 170 -164 336 -265 544 -334 171 -57 241 -67 455 -67
194 1 296 15 452 66 386 126 723 442 867 814 42 109 42 109 376 1590 270 1199
296 1311 345 1530 362 1596 551 2443 561 2509 20 125 1 308 -44 432 -81 221
-285 419 -515 499 -193 67 -447 56 -632 -27 -180 -81 -349 -246 -430 -419 -43
-93 -11 51 -421 -1874 -71 -335 -186 -871 -254 -1190 -68 -319 -172 -805 -230
-1080 -58 -275 -109 -509 -114 -519 -5 -14 -20 30 -49 145 -23 90 -112 434
-197 764 -187 719 -254 980 -600 2320 -312 1209 -308 1193 -335 1269 -80 233
-284 448 -535 566 -163 76 -375 106 -567 81 -341 -46 -665 -288 -795 -597 -39
-90 -39 -91 -187 -664 -109 -424 -268 -1039 -542 -2100 -42 -162 -96 -369
-119 -460 -24 -91 -109 -421 -190 -735 -81 -313 -152 -589 -159 -613 -11 -40
-18 -12 -170 705 -87 412 -178 840 -202 953 -24 113 -93 441 -154 730 -61 289
-165 779 -231 1090 -66 311 -138 651 -160 755 -85 407 -122 493 -281 661 -119
125 -261 209 -433 256 -79 22 -308 33 -388 18z m398 -69 c276 -82 496 -294
584 -561 11 -36 242 -1109 512 -2385 270 -1276 496 -2323 502 -2327 7 -4 17
-2 23 5 6 7 214 800 462 1762 249 963 517 2002 597 2310 80 308 159 594 176
635 88 212 285 411 504 511 130 59 213 74 400 74 218 0 312 -24 483 -122 216
-125 384 -334 448 -558 9 -33 279 -1074 599 -2313 321 -1240 588 -2259 594
-2265 8 -8 14 -8 22 0 5 5 235 1063 509 2349 302 1417 509 2365 525 2404 88
226 280 404 520 480 99 31 290 39 406 15 226 -45 439 -209 542 -417 70 -138
82 -195 81 -373 l-1 -150 -611 -2705 c-337 -1488 -623 -2742 -637 -2788 -76
-245 -232 -472 -439 -638 -169 -136 -322 -213 -531 -267 -116 -31 -127 -32
-330 -32 -137 0 -231 5 -270 13 -188 41 -391 128 -530 227 -98 70 -248 216
-317 309 -70 96 -147 243 -183 351 -15 44 -233 894 -486 1889 -252 995 -463
1814 -468 1819 -8 8 -15 7 -24 -3 -8 -8 -220 -829 -472 -1825 -251 -995 -471
-1848 -487 -1895 -151 -432 -534 -765 -998 -866 -130 -29 -451 -27 -576 4
-241 57 -424 154 -617 325 -165 147 -303 360 -370 572 -40 129 -1235 5401
-1247 5502 -18 163 10 333 81 480 112 234 343 417 589 469 99 20 345 12 435
-15z"/>
<path d="M43945 7694 c-11 -3 -51 -12 -90 -21 -160 -36 -341 -162 -447 -310
-109 -152 -150 -279 -151 -468 0 -105 21 -260 162 -1215 89 -602 166 -1122
172 -1155 32 -185 176 -335 357 -374 246 -52 481 76 556 303 9 27 92 555 183
1175 151 1015 167 1139 167 1261 1 111 -3 149 -22 213 -80 279 -294 494 -567
570 -68 19 -273 32 -320 21z m253 -54 c75 -14 204 -66 264 -107 216 -146 347
-385 348 -633 0 -71 -41 -375 -165 -1220 -91 -619 -169 -1146 -175 -1173 -25
-117 -108 -220 -225 -278 -67 -33 -74 -34 -185 -34 -144 0 -202 20 -290 102
-67 61 -91 96 -114 166 -9 26 -93 570 -187 1210 -157 1067 -170 1170 -165
1257 12 205 93 379 238 517 143 134 310 201 504 202 56 1 124 -3 152 -9z"/>
<path d="M615 7605 c-112 -21 -237 -71 -320 -128 -97 -67 -204 -214 -245 -337
-53 -159 -50 5 -50 -3185 0 -1949 4 -2982 10 -3025 43 -277 200 -482 440 -578
148 -59 90 -56 1255 -60 1083 -4 1261 0 1550 34 991 116 1770 459 2315 1020
252 260 434 524 582 846 176 383 276 769 330 1273 20 189 17 881 -5 1065 -94
768 -316 1339 -712 1830 -105 130 -308 332 -435 433 -591 472 -1357 740 -2320
812 -270 21 -2287 20 -2395 0z m2439 -49 c466 -44 804 -111 1156 -226 1170
-385 1897 -1184 2149 -2360 109 -512 126 -1167 45 -1735 -90 -628 -324 -1200
-671 -1635 -138 -174 -372 -398 -548 -527 -222 -162 -534 -330 -800 -432 -397
-151 -857 -247 -1395 -292 -190 -16 -2136 -25 -2267 -10 -375 41 -581 217
-661 566 -14 63 -16 347 -19 2970 -3 1886 0 2938 6 3010 22 237 94 397 232
518 94 82 257 147 418 167 36 5 543 7 1126 5 885 -2 1088 -5 1229 -19z"/>
<path d="M1842 6158 c-17 -17 -17 -4379 0 -4396 9 -9 93 -12 317 -12 677 1
961 32 1279 142 546 187 885 578 1042 1197 62 248 89 466 97 801 16 677 -100
1183 -360 1564 -84 123 -257 296 -377 375 -240 159 -517 259 -857 307 -226 31
-1114 49 -1141 22z m1073 -62 c481 -62 811 -201 1074 -451 277 -264 434 -612
512 -1135 26 -175 37 -643 20 -852 -53 -633 -218 -1068 -520 -1368 -204 -202
-423 -320 -757 -405 -246 -63 -500 -85 -1006 -85 l-358 0 0 2161 0 2161 458
-5 c327 -4 491 -10 577 -21z"/>
<path d="M31510 7066 c-134 -31 -262 -94 -362 -177 -81 -69 -172 -182 -217
-272 -68 -136 -79 -196 -101 -595 -11 -195 -20 -369 -20 -387 l0 -33 -207 -5
c-229 -5 -283 -15 -388 -70 -90 -47 -213 -174 -259 -267 -168 -343 -4 -746
354 -871 56 -19 91 -23 251 -27 l186 -4 -1 -1327 c-1 -1456 -3 -1412 60 -1701
143 -655 491 -995 1144 -1118 192 -37 342 -45 664 -39 401 8 604 39 787 121
251 111 389 333 389 625 0 151 -45 257 -151 355 -96 89 -209 144 -473 231
-124 40 -254 89 -288 107 -182 97 -278 268 -298 533 -5 66 -10 591 -10 1168
l0 1047 284 0 c303 0 372 7 471 51 166 72 304 236 350 414 21 83 20 244 -3
326 -44 159 -165 305 -317 381 -115 59 -134 61 -486 66 l-327 4 -5 381 c-4
346 -7 390 -26 465 -40 156 -116 287 -233 398 -114 108 -207 162 -358 209 -73
22 -332 30 -410 11z m311 -41 c184 -32 299 -93 434 -229 105 -106 161 -198
201 -331 l28 -90 5 -410 6 -410 350 -5 c347 -5 351 -5 422 -32 172 -62 306
-206 359 -383 25 -85 23 -239 -5 -325 -54 -170 -180 -304 -347 -368 -68 -26
-72 -27 -404 -32 l-335 -5 0 -1180 c0 -1325 -5 -1232 75 -1400 83 -173 198
-256 475 -345 234 -75 374 -131 451 -184 73 -49 137 -120 168 -186 30 -62 31
-70 31 -195 0 -202 -40 -315 -152 -434 -186 -199 -501 -270 -1147 -258 -288 5
-395 16 -581 59 -554 128 -882 475 -1004 1063 -58 283 -56 212 -57 1688 -1
766 -5 1362 -10 1367 -5 5 -97 10 -204 12 -171 4 -203 7 -260 27 -158 55 -295
190 -351 346 -30 84 -37 247 -14 334 24 95 67 172 135 245 71 76 136 119 228
154 62 24 83 26 297 31 l230 6 7 35 c4 19 16 204 27 410 21 398 29 449 82 568
100 222 335 410 564 451 137 24 186 26 296 6z"/>
<path d="M22350 5719 c-308 -23 -672 -86 -930 -160 -554 -161 -910 -439 -1010
-789 -27 -95 -38 -288 -21 -386 46 -262 259 -478 546 -556 120 -32 350 -32
455 0 138 43 242 102 461 263 121 90 276 183 367 222 194 83 495 115 712 76
142 -26 278 -99 348 -187 47 -60 85 -150 107 -258 15 -72 34 -279 35 -380 l0
-42 -587 -5 c-681 -6 -889 -21 -1249 -92 -1059 -207 -1573 -777 -1541 -1710
20 -563 274 -999 747 -1282 411 -247 967 -330 1554 -233 448 75 806 274 1083
602 l67 79 26 -84 c66 -212 224 -393 432 -498 108 -54 204 -79 329 -86 255
-14 470 64 638 229 167 164 248 337 272 583 7 75 9 536 6 1435 -4 1421 -4
1400 -57 1681 -100 531 -349 932 -739 1193 -325 217 -752 342 -1315 386 -147
11 -580 11 -736 -1z m810 -54 c1148 -102 1771 -609 1941 -1577 44 -251 44
-268 44 -1728 l0 -1395 -23 -85 c-59 -225 -215 -429 -401 -529 -114 -60 -204
-84 -346 -89 -207 -7 -343 30 -499 138 -173 119 -286 287 -331 492 -11 51 -22
78 -31 78 -7 0 -39 -33 -71 -72 -237 -298 -534 -502 -866 -598 -359 -103 -839
-119 -1202 -40 -675 147 -1131 579 -1256 1189 -27 127 -36 410 -19 563 40 372
193 680 449 904 114 101 229 175 396 255 210 101 406 161 690 212 376 69 523
79 1195 83 322 3 595 7 606 9 12 3 24 11 27 19 3 8 2 95 -3 193 -13 263 -44
388 -125 513 -50 77 -71 97 -149 144 -126 76 -263 107 -476 107 -322 0 -535
-72 -825 -277 -391 -277 -464 -311 -690 -321 -232 -10 -430 61 -580 211 -133
131 -187 267 -187 465 0 227 73 406 230 567 307 314 917 520 1712 577 142 11
642 5 790 -8z"/>
<path d="M22590 2549 c-102 -12 -267 -46 -337 -70 -221 -76 -372 -215 -429
-396 -21 -69 -29 -226 -15 -309 37 -210 202 -380 431 -441 94 -25 322 -23 450
4 387 83 668 383 755 808 18 89 39 358 30 393 l-5 22 -403 -1 c-221 -1 -436
-5 -477 -10z m840 -76 c0 -91 -21 -268 -42 -358 -51 -221 -168 -415 -333 -556
-74 -63 -232 -141 -345 -170 -115 -30 -361 -33 -459 -6 -258 71 -401 252 -401
506 0 166 45 282 148 384 74 73 153 119 266 156 222 72 368 87 889 89 l277 2
0 -47z"/>
<path d="M36500 5724 c-147 -11 -438 -48 -581 -74 -875 -164 -1348 -492 -1429
-992 -30 -186 13 -393 108 -530 157 -223 433 -345 735 -325 208 14 296 57 687
332 172 122 322 196 460 230 146 35 307 48 451 35 201 -17 329 -70 428 -176
102 -108 147 -266 158 -546 l6 -158 -469 0 c-258 0 -545 -5 -639 -10 -908 -52
-1479 -243 -1855 -620 -123 -123 -189 -213 -256 -350 -170 -347 -208 -814 -99
-1218 133 -493 506 -869 1040 -1047 258 -86 514 -122 808 -112 560 18 950 154
1290 448 59 51 212 212 241 253 12 18 16 11 41 -67 68 -216 246 -415 457 -511
125 -58 194 -71 363 -70 168 0 228 12 353 70 218 100 387 297 460 535 43 139
43 161 39 1614 -4 1418 -4 1417 -43 1655 -44 268 -138 532 -260 732 -309 507
-828 789 -1629 883 -134 16 -722 29 -865 19z m880 -68 c708 -89 1177 -320
1485 -730 175 -233 294 -538 349 -891 35 -228 37 -340 34 -1735 l-3 -1375 -23
-73 c-82 -268 -281 -474 -542 -562 -88 -30 -302 -39 -407 -17 -317 68 -561
314 -627 632 -7 38 -17 61 -27 63 -9 1 -41 -30 -78 -77 -81 -103 -266 -281
-366 -353 -224 -159 -510 -265 -830 -308 -137 -18 -468 -24 -600 -11 -655 67
-1149 371 -1393 856 -185 369 -214 849 -76 1265 66 197 153 346 289 489 357
377 918 571 1820 631 83 5 377 10 655 10 278 0 511 4 519 9 12 8 13 38 8 173
-13 333 -63 496 -191 624 -123 123 -291 175 -566 175 -218 0 -386 -36 -565
-120 -75 -35 -209 -123 -450 -293 -124 -88 -236 -141 -351 -169 -75 -18 -108
-20 -209 -16 -189 9 -325 54 -453 152 -176 133 -260 322 -249 565 18 414 324
719 917 914 270 89 570 148 920 181 205 19 825 14 1010 -9z"/>
<path d="M36695 2549 c-287 -29 -501 -112 -630 -244 -114 -117 -158 -231 -159
-415 0 -169 42 -278 152 -392 115 -119 295 -188 491 -188 91 0 252 25 336 50
418 129 684 533 689 1045 l1 150 -400 1 c-220 1 -436 -2 -480 -7z m832 -171
c-14 -316 -109 -557 -292 -743 -130 -132 -228 -191 -400 -240 -124 -36 -315
-45 -434 -21 -191 39 -324 133 -395 281 -133 275 -22 599 248 729 218 105 414
131 1005 134 l274 2 -6 -142z"/>
<path d="M47805 5724 c-774 -58 -1314 -261 -1683 -636 -264 -267 -403 -603
-419 -1010 -24 -613 218 -1061 744 -1382 157 -95 316 -166 535 -240 205 -69
361 -107 825 -202 175 -35 356 -74 403 -84 351 -83 469 -187 458 -404 -14
-260 -226 -406 -593 -406 -278 0 -533 78 -762 231 -43 29 -125 88 -183 133
-232 177 -268 203 -330 243 -155 98 -309 143 -495 143 -156 0 -298 -34 -414
-99 -67 -37 -160 -137 -203 -217 -100 -187 -134 -499 -79 -716 120 -469 656
-781 1546 -902 295 -40 457 -50 820 -49 459 0 737 23 1030 83 752 154 1179
488 1349 1053 102 339 114 760 32 1086 -66 259 -183 465 -369 649 -103 102
-144 135 -269 215 -206 133 -487 246 -826 331 -85 22 -604 131 -887 187 -287
56 -448 120 -526 207 -57 63 -74 117 -67 212 10 135 97 249 244 316 108 50
193 65 365 65 167 -1 255 -11 389 -46 177 -47 290 -113 520 -306 261 -217 365
-266 600 -276 210 -9 327 33 456 162 132 133 179 249 178 445 0 113 -3 134
-31 215 -92 270 -314 494 -663 674 -238 122 -449 196 -742 261 -225 50 -342
62 -628 65 -151 1 -297 1 -325 -1z m588 -54 c485 -47 977 -215 1312 -448 111
-78 270 -239 329 -335 132 -213 152 -446 54 -647 -46 -95 -153 -199 -254 -247
l-79 -38 -165 0 c-158 1 -168 2 -247 31 -114 43 -172 80 -341 222 -277 232
-409 303 -657 348 -141 26 -462 27 -555 1 -108 -29 -205 -83 -274 -151 -94
-92 -134 -199 -123 -323 18 -192 171 -298 553 -382 76 -16 304 -64 505 -105
201 -42 429 -91 505 -111 763 -196 1207 -549 1368 -1091 41 -138 58 -259 63
-451 10 -360 -43 -639 -172 -898 -222 -446 -683 -716 -1400 -820 -311 -45
-391 -50 -825 -50 -472 1 -713 18 -1025 76 -506 93 -870 252 -1096 478 -178
178 -251 377 -236 642 16 275 100 467 251 572 117 82 204 107 392 114 130 5
149 3 245 -21 156 -40 223 -80 519 -307 351 -268 500 -343 785 -396 125 -23
384 -23 485 0 293 66 453 287 399 549 -29 138 -127 224 -334 291 -114 37 -153
46 -620 142 -231 47 -477 102 -547 121 -680 186 -1104 476 -1315 899 -65 130
-112 289 -133 451 -16 118 -8 418 15 539 31 169 108 366 200 509 205 321 589
580 1058 715 205 58 509 110 727 124 125 8 542 6 633 -3z"/>
<path d="M26896 5654 c-266 -59 -500 -256 -605 -509 -70 -167 -65 -8 -68
-2100 -4 -1888 -2 -2022 31 -2146 100 -386 447 -667 846 -686 263 -12 486 70
676 250 128 121 218 271 266 442 22 80 22 86 28 1085 7 1075 6 1062 59 1284
98 408 312 667 632 762 82 24 150 34 305 43 252 16 391 71 537 214 241 237
309 611 168 922 -74 162 -206 300 -351 367 -134 62 -213 79 -383 85 -156 6
-224 -4 -335 -48 -284 -113 -485 -366 -718 -904 l-44 -100 0 155 c0 162 -13
248 -50 348 -50 132 -153 274 -265 365 -69 55 -233 139 -320 162 -87 24 -320
29 -409 9z m374 -49 c214 -45 440 -225 541 -430 62 -126 79 -211 86 -422 6
-166 8 -183 25 -188 37 -12 53 5 92 97 127 306 274 559 407 701 171 184 339
260 574 259 277 -1 486 -88 632 -263 54 -66 125 -210 149 -304 27 -104 25
-277 -4 -378 -60 -210 -191 -376 -372 -471 -88 -47 -165 -65 -322 -76 -186
-14 -222 -19 -318 -45 -342 -92 -578 -371 -680 -805 -52 -226 -52 -225 -59
-1300 -7 -989 -7 -1006 -28 -1075 -52 -169 -121 -282 -246 -402 -101 -97 -208
-162 -337 -205 -90 -30 -103 -32 -255 -32 -138 -1 -171 2 -238 22 -196 56
-384 191 -496 355 -45 66 -98 183 -124 275 l-22 77 -3 1930 c-2 1365 0 1953 8
2007 15 102 51 206 102 293 54 91 201 239 293 293 174 103 380 133 595 87z"/>
<path d="M7875 2003 c-278 -59 -517 -261 -620 -524 -53 -134 -72 -339 -46
-486 43 -234 174 -430 378 -566 84 -56 191 -100 295 -121 109 -23 517 -23 626
0 270 55 503 245 615 500 88 201 90 471 6 683 -102 256 -347 459 -621 515
-105 22 -530 21 -633 -1z m541 -33 c188 -20 347 -94 478 -224 173 -171 248
-353 248 -601 0 -188 -47 -333 -153 -476 -131 -177 -308 -287 -519 -323 -124
-21 -420 -22 -549 -1 -316 52 -583 302 -657 616 -26 107 -23 298 5 404 85 321
364 567 685 604 101 12 355 12 462 1z"/>
</g>
</svg>
